<?xml version="1.0" encoding="utf-8"?>
<!-- Generator: Adobe Illustrator 22.0.1, SVG Export Plug-In . SVG Version: 6.00 Build 0)  -->
<svg version="1.1" id="Layer_1" xmlns="http://www.w3.org/2000/svg" xmlns:xlink="http://www.w3.org/1999/xlink" x="0px" y="0px"
	 viewBox="0 0 68 68" style="enable-background:new 0 0 68 68;" xml:space="preserve">
<g>
	<g>
		<path d="M42.0482483,42.4633789c-3.1865234,0-6.0541992-1.1679688-7.7333984-3.0654297
			c-1.690918,1.8974609-4.5786114,3.0654297-7.7866192,3.0654297c-3.3823242,0-6.4707031-1.3339844-8.097168-3.4492188
			c-0.4667969,0.0673828-0.9501953,0.1005859-1.4628906,0.1005859c-2.0737314,0-4.0786142-0.5800781-5.7983408-1.6787109
			c-0.0351563-0.0224609-0.0688477-0.046875-0.1000977-0.0732422c-3.1342773-2.0058594-5.0014648-5.4228516-5.0014648-9.1679688
			c0-2.8085938,1.0708008-5.4824219,3.0146484-7.5292969c0.3813477-0.4003906,1.0146484-0.4160156,1.4135742-0.0361328
			c0.4008789,0.3798828,0.4169922,1.0126953,0.0366211,1.4130859c-1.5893555,1.6738281-2.4648438,3.8583984-2.4648438,6.1523438
			c0,3.0927734,1.5585938,5.9121094,4.1689453,7.5400391c0.0375977,0.0234375,0.0737305,0.0498047,0.1074219,0.078125
			c1.3754883,0.8515625,2.9716797,1.3017578,4.6235361,1.3017578c0.6152344,0,1.171875-0.0576172,1.7016602-0.1757813
			c0.4204102-0.0957031,0.8525391,0.0908203,1.074707,0.4589844c1.105957,1.8339844,3.8320313,3.0654297,6.7836914,3.0654297
			c3.0913086,0,5.8671856-1.3134766,6.9072247-3.2685547c0.1733398-0.3261719,0.5131836-0.5302734,0.8828125-0.5302734
			c0.0004883,0,0.0009766,0,0.0019531,0c0.3701172,0.0009766,0.7099609,0.2060547,0.8828125,0.5332031
			c1.0297852,1.953125,3.7807617,3.265625,6.8452148,3.265625c2.9155273,0,5.6176758-1.2314453,6.7236328-3.0654297
			c0.222168-0.3681641,0.6533203-0.5546875,1.074707-0.4589844c0.5292969,0.1181641,1.0859375,0.1757813,1.7016602,0.1757813
			c1.6523438,0,3.2490234-0.4501953,4.625-1.3037109c0.0332031-0.0273438,0.0683594-0.0527344,0.1054688-0.0761719
			c2.6108398-1.6279297,4.1694336-4.4472656,4.1694336-7.5400391c0-4.9082031-3.9926758-8.9013672-8.8999023-8.9013672
			c-0.5576172,0-1.0673828,0.046875-1.5581055,0.1425781c-0.293457,0.0576172-0.5947266-0.0185547-0.8251953-0.2080078
			c-0.2304688-0.1884766-0.3647461-0.4697266-0.3666992-0.7675781C48.7513733,10.4887695,42.2289124,4.003418,34.2582092,4.003418
			c-3.6718731,0-7.1772442,1.3759766-9.8701153,3.8740234c-0.4042969,0.3759766-1.0375977,0.3525391-1.4135742-0.0537109
			c-0.3754883-0.4042969-0.3515625-1.0371094,0.0532227-1.4130859c3.0644531-2.8417969,7.0527344-4.4072266,11.2304668-4.4072266
			c8.6875,0,15.8632813,6.7744141,16.4951172,15.3183594c0.2583008-0.0195313,0.5224609-0.0283203,0.7949219-0.0283203
			c6.0102539,0,10.8999023,4.890625,10.8999023,10.9013672c0,3.7451172-1.8681641,7.1640625-5.0039063,9.1699219
			c-0.0307617,0.0253906-0.0634766,0.0498047-0.0981445,0.0712891c-1.7197266,1.0986328-3.7246094,1.6787109-5.7978516,1.6787109
			c-0.5126953,0-0.9960938-0.0332031-1.4624023-0.1005859C48.4627991,41.1293945,45.3968811,42.4633789,42.0482483,42.4633789z"/>
	</g>
	<g>
		<path d="M33.7460022,65.996582c-5.1767559,0-10.2075176-0.5488281-15.057127-1.6464844
			c-1.0922852-0.2480469-1.9589844-1.1210938-2.2094727-2.2226563l-5.7490244-25.3193359
			c-0.1225586-0.5390625,0.215332-1.0742188,0.7539063-1.1972656c0.5390625-0.1171875,1.0742188,0.2158203,1.1962891,0.7539063
			l5.7490244,25.3193359c0.0810547,0.3564453,0.3564453,0.6367188,0.7016602,0.7148438
			c9.4472656,2.1386719,19.6206036,2.1298828,30.2358379-0.0273438c0.3583984-0.0722656,0.6445313-0.3554688,0.7280273-0.71875
			l5.7412109-25.2880859c0.1225586-0.5380859,0.6606445-0.8710938,1.1962891-0.7539063
			c0.5385742,0.1230469,0.8764648,0.6582031,0.7539063,1.1972656L52.0448303,62.097168
			c-0.2578125,1.1279297-1.1518555,2.0048828-2.2783203,2.234375C44.3036194,65.440918,38.9510803,65.996582,33.7460022,65.996582z"
			/>
	</g>
	<g>
		<path d="M26.5043049,65.5942383c-0.4726563,0-0.8930664-0.3359375-0.9824219-0.8173828l-2.875-15.5195313
			c-0.1005859-0.5439453,0.2583008-1.0654297,0.8012695-1.1660156c0.5439453-0.1074219,1.0644531,0.2578125,1.1655273,0.8007813
			l2.875,15.5195313c0.1005859,0.5439453-0.2583008,1.0654297-0.8012695,1.1660156
			C26.6258869,65.5893555,26.5643635,65.5942383,26.5043049,65.5942383z"/>
	</g>
	<g>
		<path d="M34.2582092,65.5942383c-0.5522461,0-1-0.4472656-1-1V47.1362305c0-0.5527344,0.4477539-1,1-1s1,0.4472656,1,1v17.4580078
			C35.2582092,65.1469727,34.8104553,65.5942383,34.2582092,65.5942383z"/>
	</g>
	<g>
		<path d="M42.0121155,65.5942383c-0.0600586,0-0.121582-0.0048828-0.1831055-0.0166016
			c-0.5429688-0.1005859-0.9018555-0.6220703-0.8012695-1.1660156l2.875-15.5195313
			c0.1005859-0.5429688,0.6191406-0.9072266,1.1655273-0.8007813c0.5429688,0.1005859,0.9018555,0.6220703,0.8012695,1.1660156
			l-2.875,15.5195313C42.9051819,65.2583008,42.4847717,65.5942383,42.0121155,65.5942383z"/>
	</g>
	<g>
		<path d="M18.8299885,25.6743164c-0.0429688,0-0.0859375-0.0029297-0.1293945-0.0078125
			c-4.0634775-0.5253906-9.47754-2.0732422-12.192872-6.4667969c-0.8935547-1.4316406-1.1733398-3.1328125-0.7856445-4.7861328
			c0.387207-1.6503906,1.3911133-3.0517578,2.8271484-3.9482422c1.5566406-0.9589844,3.4199219-1.1894531,5.1279297-0.6875
			c0.3046875-1.7539063,1.3427734-3.3183594,2.9052744-4.2841797c1.4331055-0.8886719,3.1289063-1.1640625,4.7744141-0.7773438
			c1.6503906,0.3886719,3.0507813,1.3984375,3.9423828,2.8417969c2.6640625,4.2929688,1.7363281,9.6953125,0.4887695,13.4697266
			c-0.1733398,0.5253906-0.7382813,0.8105469-1.2636719,0.6357422c-0.5244141-0.1728516-0.8085938-0.7382813-0.6357422-1.2626953
			c1.1142578-3.3701172,1.9677734-8.1513672-0.2895508-11.7900391c-0.6118164-0.9902344-1.5708008-1.6816406-2.7006836-1.9472656
			c-1.1254883-0.2646484-2.2836914-0.0771484-3.2631836,0.5302734c-1.3554688,0.8378906-2.1557627,2.4033203-2.0390635,3.9873047
			c0.0268555,0.3701172-0.152832,0.7246094-0.4672852,0.9208984c-0.3149414,0.1972656-0.7128906,0.2041016-1.0327148,0.0166016
			c-1.4018555-0.8154297-3.1230469-0.796875-4.4936523,0.046875C8.6234446,12.7768555,7.934968,13.737793,7.669343,14.8696289
			c-0.2651367,1.1318359-0.074707,2.2949219,0.5371094,3.2753906c2.3041992,3.7275391,7.1176758,5.0683594,10.750001,5.5371094
			c0.5478516,0.0712891,0.9345703,0.5722656,0.8637695,1.1201172
			C19.7552814,25.3071289,19.3251057,25.6743164,18.8299885,25.6743164z"/>
	</g>
	<g>
		<path d="M32.7001038,14.387207c-0.3369141,0-0.6660156-0.1699219-0.8544903-0.4794922l-2.440918-4
			c-0.2875977-0.4707031-0.1386719-1.0869141,0.3325195-1.3740234c0.4702148-0.2890625,1.0869141-0.1396484,1.3745117,0.3330078
			l2.4409161,4c0.2875977,0.4707031,0.1386719,1.0869141-0.3325195,1.3740234
			C33.0575256,14.340332,32.8778381,14.387207,32.7001038,14.387207z"/>
	</g>
	<g>
		<path d="M40.7001038,14.387207c-0.3369141,0-0.6660156-0.1699219-0.8544922-0.4794922l-2.440918-4
			c-0.2875977-0.4707031-0.1386719-1.0869141,0.3325195-1.3740234c0.4711914-0.2890625,1.0864258-0.1396484,1.3745117,0.3330078
			l2.440918,4c0.2875977,0.4707031,0.1386719,1.0869141-0.3325195,1.3740234
			C41.0575256,14.340332,40.8778381,14.387207,40.7001038,14.387207z"/>
	</g>
	<g>
		<path d="M34.4798889,32.605957c-0.3374023,0-0.6665039-0.1699219-0.8549805-0.4794922
			c-0.2871094-0.4716797-0.1381836-1.0869141,0.3334961-1.3740234l4-2.4394531
			c0.472168-0.2910156,1.0864258-0.1396484,1.3745117,0.3330078c0.2871094,0.4716797,0.1381836,1.0869141-0.3334961,1.3740234
			l-4,2.4394531C34.8368225,32.559082,34.657135,32.605957,34.4798889,32.605957z"/>
	</g>
	<g>
		<path d="M22.4798908,34.605957c-0.3374023,0-0.6665039-0.1699219-0.8549805-0.4794922
			c-0.2871094-0.4716797-0.1381836-1.0869141,0.3334961-1.3740234l4-2.4394531
			c0.472168-0.2900391,1.0864258-0.1396484,1.3745117,0.3330078c0.2871094,0.4716797,0.1381836,1.0869141-0.3334961,1.3740234
			l-4,2.4394531C22.8368244,34.559082,22.6571369,34.605957,22.4798908,34.605957z"/>
	</g>
	<g>
		<path d="M39.4798889,22.605957c-0.3374023,0-0.6665039-0.1699219-0.8549805-0.4794922
			c-0.2871094-0.4716797-0.1381836-1.0869141,0.3334961-1.3740234l4-2.4394531
			c0.4711914-0.2900391,1.0869141-0.1396484,1.3745117,0.3330078c0.2871094,0.4716797,0.1381836,1.0869141-0.3334961,1.3740234
			l-4,2.4394531C39.8368225,22.559082,39.657135,22.605957,39.4798889,22.605957z"/>
	</g>
	<g>
		<path d="M46.4798889,30.605957c-0.3374023,0-0.6665039-0.1699219-0.8549805-0.4794922
			c-0.2871094-0.4716797-0.1381836-1.0869141,0.3334961-1.3740234l4-2.4394531
			c0.472168-0.2900391,1.0864258-0.1396484,1.3745117,0.3330078c0.2871094,0.4716797,0.1381836,1.0869141-0.3334961,1.3740234
			l-4,2.4394531C46.8368225,30.559082,46.657135,30.605957,46.4798889,30.605957z"/>
	</g>
	<g>
		<path d="M16.5990314,29.3852539c-0.1318359,0-0.2661133-0.0263672-0.3950195-0.0810547
			c-0.5073252-0.21875-0.7412119-0.8066406-0.5229502-1.3144531c2.2641611-5.2597656,6.2626963-8.2324219,11.8852549-8.8339844
			c0.5463867-0.0625,1.0419922,0.3388672,1.1005859,0.8876953c0.059082,0.5488281-0.3383789,1.0419922-0.8876953,1.1005859
			c-4.9199219,0.5273438-8.2763672,3.0244141-10.2612305,7.6367188
			C17.3553791,29.1586914,16.9862385,29.3852539,16.5990314,29.3852539z"/>
	</g>
</g>
</svg>
